<?xml version="1.0" encoding="utf-8"?>
<!-- Generator: Adobe Illustrator 27.3.1, SVG Export Plug-In . SVG Version: 6.00 Build 0)  -->
<svg version="1.1" id="Layer_1" xmlns="http://www.w3.org/2000/svg" xmlns:xlink="http://www.w3.org/1999/xlink" x="0px" y="0px"
	 viewBox="0 0 282 216" style="enable-background:new 0 0 282 216;" xml:space="preserve">
<style type="text/css">
	.st0{fill:none;stroke:#000000;stroke-width:20;stroke-linecap:round;stroke-linejoin:round;stroke-miterlimit:10;}
</style>
<g>
	<path class="st0" d="M218.7,175.5H63c-7.7,0-13.9-6.2-13.9-13.9V54.9C49.1,47.2,55.4,41,63,41h155.7c7.7,0,13.9,6.2,13.9,13.9
		v106.7C232.6,169.3,226.4,175.5,218.7,175.5z"/>
	<path class="st0" d="M232.6,151.2"/>
	<path class="st0" d="M186.7,110.9"/>
	<path class="st0" d="M140.9,139.8"/>
	<path class="st0" d="M95,82"/>
	<path class="st0" d="M49.1,139.8"/>
	<polyline class="st0" points="49.1,123.4 95,98 140.9,136.7 177.9,119.1 232.6,151.2 	"/>
	<path class="st0" d="M204.9,131.2c2.5-4.4,3.9-9.6,3.9-15c0-17.1-13.8-30.9-30.9-30.9s-30.9,13.8-30.9,30.9c0,4,0.8,7.8,2.2,11.3"
		/>
</g>
</svg>
